<?xml version="1.0" standalone="no"?>
<!DOCTYPE svg PUBLIC "-//W3C//DTD SVG 20010904//EN"
 "http://www.w3.org/TR/2001/REC-SVG-20010904/DTD/svg10.dtd">
<svg version="1.0" xmlns="http://www.w3.org/2000/svg"
 width="512.000000pt" height="512.000000pt" viewBox="0 0 512.000000 512.000000"
 preserveAspectRatio="xMidYMid meet">

<g transform="translate(0.000000,512.000000) scale(0.100000,-0.100000)"
fill="#000000" stroke="none">
<path d="M466 4949 c-62 -15 -153 -68 -197 -116 -22 -24 -55 -74 -72 -111
l-32 -67 0 -575 0 -575 32 -67 c44 -93 100 -151 191 -196 l76 -37 336 0 336 0
76 37 c91 45 147 103 191 196 l32 67 0 575 0 575 -32 67 c-44 93 -100 151
-191 196 l-76 37 -315 2 c-174 1 -333 -3 -355 -8z m648 -161 c55 -16 138 -99
154 -154 17 -59 17 -1049 0 -1108 -16 -55 -99 -138 -154 -154 -57 -17 -571
-17 -628 0 -55 16 -138 99 -154 154 -17 59 -17 1049 0 1108 15 51 99 137 148
153 51 16 580 17 634 1z"/>
<path d="M640 4560 l0 -80 160 0 160 0 0 80 0 80 -160 0 -160 0 0 -80z"/>
<path d="M560 4240 l0 -80 240 0 240 0 0 80 0 80 -240 0 -240 0 0 -80z"/>
<path d="M560 3920 l0 -80 240 0 240 0 0 80 0 80 -240 0 -240 0 0 -80z"/>
<path d="M720 3600 l0 -80 80 0 80 0 0 80 0 80 -80 0 -80 0 0 -80z"/>
<path d="M4143 4945 c-107 -29 -201 -98 -244 -179 -21 -41 -28 -46 -58 -46
-118 0 -241 -116 -241 -227 0 -14 -15 -26 -52 -43 -64 -29 -126 -89 -158 -155
-35 -72 -35 -198 0 -270 31 -64 91 -124 155 -155 l50 -25 565 0 565 0 63 34
c70 38 101 70 140 145 22 43 26 64 26 136 1 78 -2 90 -33 148 -52 96 -134 154
-237 167 l-49 7 0 86 c-1 76 -4 95 -32 154 -54 116 -145 191 -270 223 -70 18
-121 18 -190 0z m171 -157 c59 -18 138 -99 155 -161 15 -53 9 -122 -14 -167
-22 -42 -19 -93 6 -116 17 -15 42 -20 129 -24 89 -4 114 -9 136 -26 53 -39 69
-71 69 -134 0 -63 -16 -95 -69 -134 -27 -21 -38 -21 -566 -21 -528 0 -539 0
-566 21 -53 39 -69 71 -69 134 0 94 51 147 155 159 91 11 117 48 88 127 -24
68 35 129 103 105 78 -27 120 -4 141 76 9 36 25 61 62 98 71 71 146 90 240 63z"/>
<path d="M1625 4056 c-14 -14 -25 -37 -25 -51 0 -14 34 -93 75 -175 l75 -150
-35 -70 c-19 -38 -35 -82 -35 -96 0 -21 24 -51 100 -129 55 -55 100 -104 100
-108 0 -4 -7 -7 -15 -7 -30 0 -93 -40 -127 -80 -81 -94 -77 -219 9 -311 44
-47 99 -74 166 -81 25 -3 31 -10 47 -55 42 -119 125 -229 225 -298 l55 -38 0
-58 0 -58 -56 -25 c-54 -25 -64 -26 -243 -26 -213 0 -256 -9 -315 -66 -49 -48
-67 -87 -74 -158 -5 -55 -10 -67 -55 -121 -60 -71 -111 -177 -126 -259 -6 -35
-11 -188 -11 -368 l0 -308 -575 0 -576 0 -24 -25 c-25 -24 -25 -26 -25 -215 0
-189 0 -191 25 -215 22 -23 32 -25 120 -25 l95 0 0 -135 c0 -131 1 -137 25
-160 l24 -25 2111 0 2111 0 24 25 c24 23 25 29 25 160 l0 135 95 0 c88 0 98 2
120 25 25 24 25 26 25 215 0 189 0 191 -25 215 l-24 25 -575 0 -575 0 -3 343
c-4 316 -6 346 -25 397 -32 87 -59 134 -111 197 -44 52 -49 65 -54 119 -7 72
-23 106 -73 156 -59 59 -101 68 -317 68 -184 0 -189 1 -243 27 l-55 27 0 56 0
55 64 47 c95 69 176 178 216 290 16 46 22 53 47 56 163 17 266 164 221 313
-20 70 -118 159 -173 159 -24 0 -19 10 46 77 l61 63 -4 183 -3 183 -37 76
c-45 91 -103 147 -196 191 l-67 32 -703 3 -702 3 -25 -25z m1409 -148 c55 -16
138 -99 154 -154 7 -23 12 -95 12 -160 l0 -120 -58 -57 c-32 -31 -65 -57 -74
-57 -34 0 -66 45 -93 128 -46 141 -77 145 -230 31 -192 -142 -248 -159 -524
-159 l-186 0 -89 89 -88 88 31 61 c17 34 31 71 31 82 0 11 -25 70 -55 130
l-55 110 591 0 c435 0 603 -3 633 -12z m-113 -650 c20 -16 54 -35 75 -43 l39
-13 3 -137 c1 -76 -2 -163 -8 -193 -46 -249 -291 -423 -540 -385 -152 24 -290
123 -355 257 -45 92 -55 148 -55 317 l0 139 168 0 c184 0 266 13 372 56 65 27
194 106 206 126 4 6 19 -13 33 -42 15 -29 43 -66 62 -82z m-1001 -218 c0 -65
-3 -80 -15 -80 -27 0 -65 47 -65 80 0 33 38 80 65 80 12 0 15 -15 15 -80z
m1335 55 c16 -15 25 -36 25 -55 0 -33 -38 -80 -65 -80 -12 0 -15 15 -15 80 0
90 11 100 55 55z m-695 -770 c47 0 102 4 123 8 l37 8 0 -51 0 -50 -160 0 -160
0 0 50 0 51 38 -8 c20 -4 75 -8 122 -8z m825 -270 c14 -13 25 -34 25 -45 0
-20 -104 -659 -115 -707 l-5 -23 -730 0 -730 0 -5 23 c-11 48 -115 687 -115
707 0 11 11 32 25 45 l24 25 801 0 801 0 24 -25z m-1751 -590 c30 -179 46
-309 48 -387 l3 -118 -83 0 -83 0 3 333 3 332 30 64 c16 35 30 60 32 55 1 -5
22 -130 47 -279z m1964 -172 l3 -333 -83 0 -83 0 3 113 c2 73 19 211 49 397
l47 284 30 -64 31 -65 3 -332z m-318 -228 c0 -46 -4 -60 -25 -80 l-24 -25
-671 0 -671 0 -24 25 c-21 20 -25 34 -25 80 l0 55 720 0 720 0 0 -55z m1520
-345 l0 -80 -2240 0 -2240 0 0 80 0 80 2240 0 2240 0 0 -80z m-240 -320 l0
-80 -2000 0 -2000 0 0 80 0 80 2000 0 2000 0 0 -80z"/>
<path d="M2240 3040 l0 -80 80 0 80 0 0 80 0 80 -80 0 -80 0 0 -80z"/>
<path d="M2720 3040 l0 -80 80 0 80 0 0 80 0 80 -80 0 -80 0 0 -80z"/>
<path d="M2480 1907 c-49 -16 -133 -102 -148 -153 -28 -94 -8 -169 63 -239 70
-71 145 -91 239 -63 55 16 138 99 154 154 28 94 8 169 -63 239 -70 71 -152 91
-245 62z m135 -172 c50 -49 15 -135 -55 -135 -19 0 -40 9 -55 25 -16 15 -25
36 -25 55 0 19 9 40 25 55 15 16 36 25 55 25 19 0 40 -9 55 -25z"/>
<path d="M4080 3520 l0 -160 -240 0 -240 0 0 -80 0 -80 295 0 296 0 24 25 c25
24 25 24 25 240 l0 215 -80 0 -80 0 0 -160z"/>
<path d="M720 2863 l0 -177 290 -291 290 -290 57 58 58 57 -268 268 -267 267
0 143 0 142 -80 0 -80 0 0 -177z"/>
<path d="M4275 2790 c-73 -13 -160 -45 -229 -84 -64 -36 -146 -101 -146 -116
0 -9 41 -53 86 -92 19 -17 22 -16 75 24 123 93 270 132 418 111 88 -13 194
-57 256 -105 22 -17 45 -35 51 -39 11 -9 114 82 114 100 0 16 -81 80 -148 118
-101 57 -201 84 -322 88 -58 2 -127 0 -155 -5z"/>
<path d="M4306 2470 c-46 -12 -149 -65 -170 -89 -14 -16 -11 -22 38 -75 l54
-59 33 25 c19 14 49 30 68 37 70 23 147 10 210 -37 l33 -25 54 59 c51 55 53
59 37 76 -9 11 -49 35 -89 54 -59 30 -85 36 -150 39 -44 3 -96 0 -118 -5z"/>
<path d="M4320 2080 l0 -80 80 0 80 0 0 80 0 80 -80 0 -80 0 0 -80z"/>
<path d="M4230 1705 l-105 -105 -102 0 -103 0 0 -80 0 -80 137 0 136 0 129
127 c70 70 128 132 128 138 0 13 -92 105 -106 105 -5 0 -56 -47 -114 -105z"/>
</g>
</svg>
