<?xml version="1.0" standalone="no"?>
<!DOCTYPE svg PUBLIC "-//W3C//DTD SVG 20010904//EN"
 "http://www.w3.org/TR/2001/REC-SVG-20010904/DTD/svg10.dtd">
<svg version="1.0" xmlns="http://www.w3.org/2000/svg"
 width="512.000000pt" height="512.000000pt" viewBox="0 0 512.000000 512.000000"
 preserveAspectRatio="xMidYMid meet">

<g transform="translate(0.000000,512.000000) scale(0.100000,-0.100000)"
fill="#000000" stroke="none">
<path d="M4240 4841 l0 -199 -167 -4 c-164 -3 -169 -4 -235 -35 -93 -44 -151
-100 -196 -191 l-37 -76 -3 -848 -3 -848 -239 0 -239 0 -3 808 -3 807 -32 67
c-44 93 -100 151 -191 196 l-76 37 -1216 0 -1216 0 -76 -37 c-91 -45 -147
-103 -191 -196 l-32 -67 0 -1616 0 -1615 37 -76 c45 -91 103 -147 196 -191
l67 -32 1215 0 1215 0 67 32 c93 44 151 100 196 191 l37 76 3 728 3 728 239 0
239 0 3 -848 3 -848 37 -76 c45 -91 103 -147 196 -191 66 -31 71 -32 235 -35
l167 -4 0 -199 0 -199 400 0 400 0 0 480 0 480 -400 0 -400 0 0 -200 0 -200
-136 0 c-78 0 -154 5 -178 12 -55 16 -138 99 -154 154 -9 30 -12 169 -12 498
l0 456 240 0 240 0 0 -200 0 -200 400 0 400 0 0 480 0 480 -400 0 -400 0 0
-200 0 -200 -240 0 -240 0 0 680 0 680 240 0 240 0 0 -240 0 -240 400 0 400 0
0 480 0 480 -400 0 -400 0 0 -160 0 -160 -240 0 -240 0 0 416 c0 298 3 428 12
458 16 55 99 138 154 154 24 7 100 12 178 12 l136 0 0 -200 0 -200 400 0 400
0 0 480 0 480 -400 0 -400 0 0 -199z m640 -281 l0 -320 -240 0 -240 0 0 320 0
320 240 0 240 0 0 -320z m-2086 -172 c55 -16 138 -99 154 -154 7 -26 12 -108
12 -216 l0 -174 -72 35 -72 36 -1200 5 c-1356 6 -1237 -2 -1315 86 -58 66 -74
142 -49 228 15 51 99 137 148 153 53 17 2338 17 2394 1z m-2325 -626 l91 -5 0
-1438 0 -1439 -56 0 c-31 0 -75 5 -98 12 -55 16 -138 99 -154 154 -9 32 -12
366 -12 1416 l0 1374 69 -34 c59 -29 83 -35 160 -40z m2325 -14 c55 -16 138
-99 154 -154 17 -60 17 -2488 0 -2548 -16 -55 -99 -138 -154 -154 -31 -9 -289
-12 -1058 -12 l-1016 0 0 1440 0 1440 1016 0 c769 0 1027 -3 1058 -12z m2086
-468 l0 -320 -240 0 -240 0 0 320 0 320 240 0 240 0 0 -320z m0 -1440 l0 -320
-240 0 -240 0 0 320 0 320 240 0 240 0 0 -320z m0 -1280 l0 -320 -240 0 -240
0 0 320 0 320 240 0 240 0 0 -320z"/>
<path d="M400 4160 l0 -80 80 0 80 0 0 80 0 80 -80 0 -80 0 0 -80z"/>
<path d="M720 4160 l0 -80 1040 0 1040 0 0 80 0 80 -1040 0 -1040 0 0 -80z"/>
<path d="M880 3120 l0 -320 80 0 80 0 0 -80 0 -80 -80 0 -80 0 0 -320 0 -320
80 0 80 0 0 -80 0 -80 -80 0 -80 0 0 -320 0 -320 960 0 960 0 0 320 0 320 -80
0 -80 0 0 80 0 80 80 0 80 0 0 320 0 320 -80 0 -80 0 0 80 0 80 80 0 80 0 0
320 0 320 -960 0 -960 0 0 -320z m1760 0 l0 -160 -800 0 -800 0 0 160 0 160
800 0 800 0 0 -160z m-160 -400 l0 -80 -640 0 -640 0 0 80 0 80 640 0 640 0 0
-80z m160 -400 l0 -160 -800 0 -800 0 0 160 0 160 800 0 800 0 0 -160z m-160
-400 l0 -80 -640 0 -640 0 0 80 0 80 640 0 640 0 0 -80z m160 -400 l0 -160
-800 0 -800 0 0 160 0 160 800 0 800 0 0 -160z"/>
</g>
</svg>
