<?xml version="1.0" standalone="no"?>
<!DOCTYPE svg PUBLIC "-//W3C//DTD SVG 20010904//EN"
 "http://www.w3.org/TR/2001/REC-SVG-20010904/DTD/svg10.dtd">
<svg version="1.0" xmlns="http://www.w3.org/2000/svg"
 width="512.000000pt" height="512.000000pt" viewBox="0 0 512.000000 512.000000"
 preserveAspectRatio="xMidYMid meet">

<g transform="translate(0.000000,512.000000) scale(0.100000,-0.100000)"
fill="#000000" stroke="none">
<path d="M670 4904 c-222 -48 -409 -237 -455 -462 -13 -61 -15 -166 -13 -642
l3 -570 33 -32 c28 -28 39 -33 82 -33 43 0 54 5 82 33 l33 32 3 325 3 325
1800 0 1799 0 -2 -782 -3 -783 -28 -61 c-36 -77 -104 -145 -182 -181 l-60 -28
-287 -5 -288 -5 -32 -33 c-28 -28 -33 -39 -33 -82 0 -43 5 -54 33 -82 l32 -33
269 -3 c308 -3 369 5 491 65 101 50 211 159 263 263 58 116 67 177 67 468 l0
252 200 0 200 0 -2 -747 -3 -748 -28 -61 c-36 -77 -104 -145 -182 -181 l-60
-28 -647 -5 -648 -5 -32 -33 c-28 -28 -33 -39 -33 -82 0 -43 5 -54 33 -82 l32
-33 630 -3 c529 -2 641 0 702 13 228 47 415 234 463 460 22 104 22 2066 0
2170 -56 266 -308 474 -577 475 l-48 0 0 208 c0 143 -5 229 -15 277 -47 225
-235 413 -460 460 -102 21 -3035 21 -3135 -1z m3110 -240 c101 -30 180 -99
227 -199 26 -55 28 -71 31 -202 l4 -143 -1802 0 -1802 0 4 143 c3 131 5 147
31 202 46 99 125 167 232 201 32 10 356 13 1531 13 1332 1 1496 -1 1544 -15z
m640 -960 c101 -30 180 -99 227 -199 27 -57 28 -67 31 -237 l4 -178 -201 0
-201 0 0 315 0 315 43 0 c24 0 67 -7 97 -16z"/>
<path d="M839 3307 c-82 -23 -154 -91 -184 -173 -56 -155 -106 -212 -248 -278
-107 -50 -158 -99 -183 -180 -15 -48 -14 -90 20 -681 37 -653 45 -727 97 -883
128 -388 429 -700 807 -836 251 -90 576 -92 834 -6 456 153 799 555 873 1023
13 84 74 1094 78 1282 1 61 -4 90 -19 125 -35 76 -68 106 -177 158 -114 55
-178 113 -211 192 -73 173 -88 194 -171 238 l-50 27 -710 2 c-541 2 -721 -1
-756 -10z m1453 -304 c66 -175 185 -292 371 -367 36 -14 37 -17 37 -64 0 -64
-58 -1111 -65 -1182 -43 -412 -344 -778 -740 -903 -124 -39 -218 -50 -367 -45
-168 7 -267 31 -413 103 -300 147 -511 421 -585 765 -15 64 -27 226 -49 631
-17 299 -32 573 -33 609 l-3 64 99 50 c155 76 270 205 316 351 7 22 17 46 23
53 7 9 154 12 695 10 l686 -3 28 -72z"/>
<path d="M1543 2738 c-17 -4 -43 -22 -57 -39 -22 -26 -26 -41 -26 -92 l0 -62
-57 -24 c-215 -94 -318 -342 -234 -563 54 -140 202 -243 389 -269 110 -15 158
-43 192 -109 43 -84 33 -164 -26 -230 -99 -109 -260 -87 -335 45 -38 68 -74
89 -138 82 -60 -7 -111 -59 -111 -112 0 -98 138 -245 274 -291 l46 -16 0 -70
c0 -66 2 -72 34 -104 28 -28 41 -34 78 -34 79 0 118 49 118 150 0 49 3 62 18
66 216 72 346 304 288 519 -52 195 -196 312 -413 334 -69 7 -93 14 -126 37
-107 76 -115 233 -15 318 96 83 253 55 309 -55 35 -69 63 -89 126 -89 49 0 59
4 89 34 44 44 44 79 2 158 -41 77 -128 157 -211 193 l-65 29 -4 68 c-3 56 -8
73 -29 93 -31 32 -75 44 -116 33z"/>
<path d="M2988 3225 c-54 -30 -74 -110 -41 -166 33 -56 51 -59 385 -59 286 0
305 1 336 20 45 28 68 82 53 130 -6 20 -22 47 -37 61 l-26 24 -321 2 c-271 2
-326 0 -349 -12z"/>
<path d="M3518 2784 c-35 -18 -58 -62 -58 -109 0 -26 9 -45 34 -73 30 -32 40
-37 78 -37 85 0 142 70 119 146 -23 76 -105 111 -173 73z"/>
<path d="M3534 1551 c-37 -16 -74 -70 -74 -107 0 -103 113 -162 189 -98 84 70
48 195 -60 209 -19 3 -43 1 -55 -4z"/>
</g>
</svg>
