<svg version="1.1" id="Layer_1" xmlns="http://www.w3.org/2000/svg" xmlns:xlink="http://www.w3.org/1999/xlink" x="0px" y="0px"
	 width="100%" viewBox="0 0 157 152" enable-background="new 0 0 157 152" xml:space="preserve">
<path fill="#000001" opacity="1.000000" stroke="none" 
	d="
M105.000000,153.000000 
	C70.000008,153.000000 35.500008,153.000000 1.000009,153.000000 
	C1.000006,102.333344 1.000006,51.666687 1.000003,1.000023 
	C53.333317,1.000015 105.666634,1.000015 157.999969,1.000008 
	C157.999969,51.666645 157.999969,102.333290 157.999985,152.999969 
	C140.500000,153.000000 123.000000,153.000000 105.000000,153.000000 
M32.744621,90.358200 
	C32.744621,90.358200 32.532036,90.613792 32.532036,90.613792 
	C32.532036,90.613792 32.739624,90.873177 32.219051,91.501282 
	C32.165974,91.767982 32.112892,92.034676 31.704176,92.379646 
	C31.447409,92.561218 31.420574,92.772003 30.943295,93.270454 
	C30.619476,94.157127 30.295660,95.043793 29.429140,96.248352 
	C29.014643,97.184517 28.600145,98.120674 27.599815,99.547066 
	C27.338877,99.982559 27.077938,100.418045 26.924236,100.701103 
	C26.924236,100.701103 26.925982,100.694267 26.459267,101.320053 
	C26.414766,101.576447 26.370268,101.832832 25.803087,102.494293 
	C25.265898,103.687531 24.728706,104.880768 24.014097,106.120750 
	C24.014097,106.120750 24.077040,106.293091 23.753311,106.333572 
	C23.753311,106.333572 23.561773,106.595642 23.561773,106.595642 
	C23.561773,106.595642 23.747122,106.861816 23.235527,107.418388 
	C23.173841,107.662720 23.112154,107.907043 22.444216,108.416107 
	C21.339405,110.629539 20.234596,112.842972 19.041119,115.064842 
	C19.041119,115.064842 19.066999,115.150070 18.462782,115.419373 
	C17.353411,117.627090 16.244040,119.834816 14.589783,122.345222 
	C14.402976,122.929733 14.216169,123.514252 13.597658,124.212105 
	C13.262659,124.391426 13.191015,124.645088 13.113766,125.477493 
	C13.080017,125.665031 13.046268,125.852562 12.552004,126.167130 
	C12.192254,126.355186 12.110969,126.626633 12.076245,127.471138 
	C12.051617,127.650063 12.026989,127.828979 11.541286,128.155746 
	C11.177451,128.347366 11.095586,128.622787 10.941187,129.669846 
	C7.675848,135.529236 8.156322,137.784317 13.758076,140.136032 
	C17.483910,140.029221 21.209745,139.922424 25.860510,139.879089 
	C32.250053,139.136322 38.639595,138.393539 45.557152,137.791336 
	C45.974030,137.506271 46.390911,137.221191 47.605995,136.897308 
	C50.412464,135.796753 53.218933,134.696182 56.447708,133.677261 
	C56.730568,133.523224 56.867661,133.285156 57.549339,132.848862 
	C61.027889,129.140518 64.506439,125.432190 68.283401,121.678429 
	C68.283401,121.678429 68.465019,121.439354 68.465019,121.439354 
	C68.465019,121.439354 68.342003,121.165504 68.822174,120.609207 
	C68.872635,120.369499 68.923096,120.129799 69.364792,119.762093 
	C69.676590,119.580574 69.721153,119.347969 69.811935,118.467987 
	C69.853981,118.247406 69.896019,118.026825 70.419373,117.588173 
	C70.464592,117.080666 70.509804,116.573151 70.915588,115.373848 
	C71.261986,113.871605 71.608383,112.369354 72.408981,110.610535 
	C72.385544,110.125412 72.362099,109.640297 72.666656,108.376579 
	C72.803734,107.260040 72.940804,106.143509 73.744507,104.809158 
	C73.576553,103.674141 73.408600,102.539124 73.557976,100.926308 
	C73.471268,100.187950 73.384552,99.449600 74.052856,98.245461 
	C75.765465,98.103294 77.478073,97.961128 79.268227,97.812531 
	C79.610008,99.821846 79.876160,101.386497 80.062271,103.713531 
	C80.145393,104.470490 80.228516,105.227455 80.173302,106.687393 
	C80.478577,107.781044 80.783844,108.874702 81.073837,110.655914 
	C81.176254,111.097725 81.278679,111.539543 81.236710,112.718590 
	C82.490166,115.481651 83.743622,118.244720 85.089546,121.676392 
	C85.798538,122.768265 86.507530,123.860130 87.241058,125.427574 
	C87.412689,125.734383 87.674248,125.891785 88.225601,126.552399 
	C92.152710,129.367432 96.079819,132.182465 100.166847,135.609741 
	C100.765556,135.638596 101.364258,135.667435 102.630753,135.989807 
	C103.766640,136.283478 104.902534,136.577148 106.355598,137.370911 
	C106.909592,137.466263 107.463585,137.561615 108.671112,137.865341 
	C109.127983,137.863342 109.584846,137.861343 110.351379,138.351715 
	C110.908760,138.415207 111.466133,138.478699 112.788979,138.829498 
	C113.876968,138.823883 114.964966,138.818268 116.639885,139.255768 
	C118.099472,139.382095 119.559052,139.508438 121.852409,139.846207 
	C123.572968,139.883118 125.293526,139.920029 127.287895,140.662125 
	C129.175934,140.395859 131.063965,140.129578 133.848999,139.914734 
	C136.225464,139.793900 138.601913,139.673065 141.512436,139.618469 
	C142.100494,139.064377 142.688553,138.510284 143.916946,137.493881 
	C144.010864,136.005234 144.104767,134.516586 144.434280,132.431244 
	C143.590469,131.067871 142.746658,129.704514 141.774475,127.678825 
	C141.404297,127.148216 141.034119,126.617607 140.643555,125.453918 
	C140.155182,124.798477 139.666824,124.143036 139.116440,122.838196 
	C138.311218,121.585434 137.506012,120.332664 136.682053,118.487404 
	C136.099518,117.727486 135.516968,116.967560 134.746521,115.436157 
	C134.572449,115.236786 134.398361,115.037415 134.434891,114.614731 
	C134.353073,114.364388 134.188858,114.285866 133.808334,113.699738 
	C133.444153,113.159454 133.079987,112.619164 132.704819,111.469765 
	C132.116287,110.709831 131.527756,109.949898 130.772583,108.377571 
	C130.180984,107.458450 129.589386,106.539337 129.238007,105.707603 
	C129.238007,105.707603 129.198486,105.453293 129.198486,105.453293 
	C129.198486,105.453293 128.944046,105.504944 128.987259,105.197655 
	C128.987259,105.197655 128.694763,105.094017 128.665207,104.444778 
	C127.748833,103.057938 126.832466,101.671097 125.791771,99.638107 
	C125.425133,99.119202 125.058502,98.600288 124.671127,97.431236 
	C123.753426,96.045792 122.835724,94.660339 121.666443,92.401283 
	C121.467171,92.172974 121.267906,91.944672 121.348251,91.664948 
	C121.348251,91.664948 121.212936,91.411995 121.212936,91.411995 
	C121.212936,91.411995 120.928749,91.458717 120.982292,91.171341 
	C120.982292,91.171341 120.699425,91.097595 120.673119,90.436485 
	C119.757881,89.035042 118.842636,87.633606 117.696068,85.400520 
	C117.510674,85.180481 117.325272,84.960434 117.415993,84.671822 
	C117.415993,84.671822 117.283104,84.419426 117.283104,84.419426 
	C117.283104,84.419426 117.007973,84.497406 116.792366,83.768646 
	C111.220131,74.086304 105.634033,64.411911 100.079475,54.719437 
	C94.218430,44.492157 88.550262,34.148239 82.410217,24.091936 
	C81.135033,22.003407 78.158897,20.953415 75.530403,19.265146 
	C75.237289,19.426556 75.063126,19.672287 74.358612,20.187860 
	C72.893059,22.092121 71.427513,23.996382 69.416794,26.032093 
	C69.332962,26.351311 69.249130,26.670527 69.054466,27.499495 
	C69.037193,27.672520 69.019920,27.845547 68.562752,28.174871 
	C68.219856,28.358309 68.133026,28.625095 67.958961,29.601604 
	C63.986481,36.453453 60.014000,43.305298 55.626869,50.245277 
	C55.312897,50.414436 55.240654,50.655876 55.045940,51.590263 
	C53.379574,54.575970 51.713203,57.561672 49.798279,60.484745 
	C49.798279,60.484745 49.742813,60.729935 49.742813,60.729935 
	C49.742813,60.729935 49.986248,60.672924 49.377369,61.167286 
	C48.581001,62.768326 47.784634,64.369370 46.440487,66.271278 
	C46.028709,67.206543 45.616928,68.141815 45.017029,69.119194 
	C45.017029,69.119194 45.076382,69.302605 44.736095,69.332390 
	C44.736095,69.332390 44.522503,69.596809 44.522503,69.596809 
	C44.522503,69.596809 44.708687,69.880920 44.211277,70.407227 
	C43.804512,71.263985 43.397747,72.120735 42.435520,73.259529 
	C42.038139,74.196373 41.640762,75.133217 40.700050,76.448456 
	C40.131500,77.627800 39.562950,78.807144 38.440098,80.270798 
	C38.046303,81.211182 37.652512,82.151558 37.017834,83.142448 
	C37.017834,83.142448 37.079197,83.380806 36.761295,83.366699 
	C36.761295,83.366699 36.567429,83.617348 36.567429,83.617348 
	C36.567429,83.617348 36.779007,83.852890 36.233906,84.464142 
	C36.174664,84.730637 36.115421,84.997131 35.680553,85.350769 
	C35.412018,85.528885 35.364082,85.753944 35.002003,86.366722 
	C34.771656,86.939476 34.541309,87.512222 33.832531,88.440155 
	C33.642841,88.991203 33.453156,89.542252 33.024498,90.134247 
	C33.024498,90.134247 33.078217,90.370674 32.744621,90.358200 
z"/>
<path fill="#F3F3F4" opacity="1.000000" stroke="none" 
	d="
M100.006927,134.997498 
	C96.079819,132.182465 92.152710,129.367432 88.057068,126.018661 
	C87.733879,125.219833 87.509872,125.042198 87.216522,124.952003 
	C86.507530,123.860130 85.798538,122.768265 85.045853,120.957031 
	C83.795135,117.485558 82.588120,114.733459 81.381104,111.981354 
	C81.278679,111.539543 81.176254,111.097725 81.321747,110.093582 
	C81.150314,108.348969 80.730980,107.166695 80.311638,105.984413 
	C80.228516,105.227455 80.145393,104.470490 80.354599,103.048981 
	C81.735405,99.192589 82.823875,96.000740 83.983391,92.455826 
	C85.329018,91.270874 86.603607,90.438980 88.039352,89.914406 
	C89.440887,90.242111 90.681252,90.262497 92.352280,90.243820 
	C95.127922,90.380142 97.533234,90.634735 97.227272,86.826775 
	C97.102066,85.757767 96.731743,84.869011 96.192276,83.674347 
	C96.032776,82.907196 96.042412,82.445961 96.261917,81.838463 
	C96.133911,81.120247 95.796021,80.548286 95.285995,79.645660 
	C94.757805,78.131821 94.401764,76.948654 94.015625,75.628609 
	C93.912987,75.308685 93.786964,75.176773 93.374741,74.678558 
	C93.103928,70.171295 93.065826,66.081467 93.288857,61.754093 
	C92.814850,59.338020 92.079712,57.159492 91.116455,54.703327 
	C87.345825,49.443787 83.799950,44.464272 80.262032,39.479107 
	C78.007385,36.302170 75.546906,36.413204 72.598923,39.031559 
	C71.862274,39.727665 71.444954,40.387421 71.012245,41.025650 
	C70.996857,41.004124 71.044922,41.025970 70.703049,41.042358 
	C69.541435,42.251328 68.721687,43.443905 67.813301,44.926910 
	C67.408936,45.456814 67.093208,45.696289 66.468521,46.001968 
	C65.739845,46.957676 65.320129,47.847179 64.920181,48.819439 
	C64.939941,48.902199 64.770439,48.917316 64.441620,49.003319 
	C63.032574,52.047165 61.952347,55.005009 60.906151,58.373123 
	C60.696266,59.845901 60.452351,60.908409 59.918182,62.149044 
	C59.745377,64.870003 59.862827,67.412827 59.986343,70.379723 
	C59.419758,73.193695 58.847115,75.583603 58.001968,78.093811 
	C57.461784,79.802536 57.194103,81.390945 56.936546,83.389267 
	C56.711395,84.856895 56.476124,85.914619 55.956841,87.131790 
	C55.733639,88.748695 55.794453,90.206154 55.855263,91.663605 
	C56.576637,91.270004 57.298012,90.876396 58.412193,90.369263 
	C59.894203,90.251671 60.983406,90.247612 62.341599,90.476997 
	C63.786499,90.274063 64.962410,89.837685 66.442825,89.450439 
	C66.830330,89.687691 66.913338,89.875816 67.020226,90.353546 
	C67.572784,91.126602 68.101471,91.610062 68.923264,92.283798 
	C70.141090,93.156448 71.065804,93.838829 72.067749,94.876297 
	C72.529274,96.391335 72.913559,97.551285 73.297836,98.711243 
	C73.384552,99.449600 73.471268,100.187950 73.252716,101.491074 
	C72.990929,103.046211 73.034401,104.036591 73.077881,105.026970 
	C72.940804,106.143509 72.803734,107.260040 72.371735,108.949409 
	C72.036140,109.970528 71.995461,110.418823 71.954781,110.867111 
	C71.608383,112.369354 71.261986,113.871605 70.556999,115.883682 
	C70.111626,116.864418 70.024849,117.335335 69.938065,117.806244 
	C69.896019,118.026825 69.853981,118.247406 69.508728,118.858116 
	C69.048935,119.433533 68.971619,119.647484 68.973557,119.890099 
	C68.923096,120.129799 68.872635,120.369499 68.479149,120.944313 
	C68.136124,121.279419 67.984993,121.723862 67.984985,121.723862 
	C64.506439,125.432190 61.027889,129.140518 57.022388,132.946396 
	C56.251583,133.153534 56.094906,133.337433 56.025406,133.595612 
	C53.218933,134.696182 50.412464,135.796753 46.953804,136.917694 
	C45.877457,137.175644 45.453297,137.413208 45.029140,137.650757 
	C38.639595,138.393539 32.250053,139.136322 25.092854,139.587585 
	C20.578329,139.440659 16.831461,139.585220 13.084592,139.729797 
	C8.156322,137.784317 7.675848,135.529236 11.301634,129.218445 
	C11.880412,128.561035 11.993838,128.307983 12.002360,128.007889 
	C12.026989,127.828979 12.051617,127.650063 12.374918,127.126419 
	C12.889895,126.581734 13.002872,126.334534 13.012519,126.040100 
	C13.046268,125.852562 13.080017,125.665031 13.422213,125.138382 
	C13.928843,124.607834 14.028412,124.374329 14.029363,124.098763 
	C14.216169,123.514252 14.402976,122.929733 15.198456,122.128731 
	C16.893753,119.658180 17.980375,117.404129 19.066998,115.150070 
	C19.066999,115.150070 19.041119,115.064842 19.421684,114.992096 
	C20.884991,112.663353 21.967731,110.407364 23.050468,108.151375 
	C23.112154,107.907043 23.173841,107.662720 23.577368,107.066193 
	C23.919209,106.713989 24.077040,106.293091 24.077040,106.293091 
	C24.077040,106.293091 24.014097,106.120750 24.404743,106.038055 
	C25.305515,104.666641 25.815643,103.377930 26.325771,102.089211 
	C26.370268,101.832832 26.414766,101.576447 26.658447,101.016190 
	C26.857628,100.712318 26.816998,100.853539 26.816998,100.853539 
	C27.077938,100.418045 27.338877,99.982559 28.226143,99.224503 
	C29.225594,97.911453 29.598717,96.920959 29.971840,95.930466 
	C30.295660,95.043793 30.619476,94.157127 31.384354,93.041763 
	C31.950518,92.664040 32.028648,92.493469 32.059807,92.301376 
	C32.112892,92.034676 32.165974,91.767982 32.562645,91.124252 
	C32.906235,90.747231 33.078217,90.370674 33.078217,90.370674 
	C33.078217,90.370674 33.024498,90.134247 33.405758,90.072922 
	C33.961666,89.369385 34.136311,88.727180 34.310959,88.084976 
	C34.541309,87.512222 34.771656,86.939476 35.391190,86.096130 
	C35.928341,85.665733 36.020275,85.478432 36.056175,85.263626 
	C36.115421,84.997131 36.174664,84.730637 36.583565,84.099625 
	C36.933220,83.735107 37.079197,83.380806 37.079197,83.380806 
	C37.079197,83.380806 37.017834,83.142448 37.462097,83.031731 
	C38.269039,81.942841 38.631725,80.964668 38.994408,79.986496 
	C39.562950,78.807144 40.131500,77.627800 41.297722,76.179413 
	C42.260590,74.932747 42.625782,73.955124 42.990978,72.977493 
	C43.397747,72.120735 43.804512,71.263985 44.552227,70.070549 
	C44.893177,69.733871 45.076382,69.302605 45.076382,69.302605 
	C45.076382,69.302605 45.017029,69.119194 45.440193,69.017639 
	C46.238327,67.934189 46.613297,66.952301 46.988266,65.970406 
	C47.784634,64.369370 48.581001,62.768326 49.702728,60.905617 
	C50.028091,60.643944 50.046837,60.547379 50.046837,60.547379 
	C51.713203,57.561672 53.379574,54.575970 55.392681,51.199745 
	C55.927406,50.632309 56.028103,50.414951 56.041515,50.157146 
	C60.014000,43.305298 63.986481,36.453453 68.309464,29.181343 
	C68.873009,28.559193 68.987236,28.311689 69.002647,28.018574 
	C69.019920,27.845547 69.037193,27.672520 69.296036,27.105639 
	C69.771957,26.490013 69.913406,26.219633 69.961967,25.900642 
	C71.427513,23.996382 72.893059,22.092121 74.879364,20.068356 
	C75.667473,19.859045 75.856323,19.684359 75.966675,19.424797 
	C78.158897,20.953415 81.135033,22.003407 82.410217,24.091936 
	C88.550262,34.148239 94.218430,44.492157 100.079475,54.719437 
	C105.634033,64.411911 111.220131,74.086304 116.885666,84.186592 
	C116.978966,84.604538 117.139862,84.740387 117.139862,84.740387 
	C117.325272,84.960434 117.510674,85.180481 117.817734,86.157776 
	C118.859413,88.309219 119.779419,89.703407 120.699425,91.097595 
	C120.699425,91.097595 120.982292,91.171341 120.955093,91.368149 
	C120.927887,91.564964 121.068642,91.716362 121.068642,91.716362 
	C121.267906,91.944672 121.467171,92.172974 121.800888,93.176071 
	C122.854179,95.327698 123.773026,96.704536 124.691864,98.081383 
	C125.058502,98.600288 125.425133,99.119202 125.863403,100.298920 
	C126.854942,102.337830 127.774857,103.715919 128.694763,105.094017 
	C128.694763,105.094017 128.987259,105.197655 128.959808,105.375046 
	C128.932343,105.552444 128.997787,105.620216 128.997787,105.620216 
	C129.589386,106.539337 130.180984,107.458450 130.857437,109.105362 
	C131.533463,110.581726 132.124634,111.330307 132.715805,112.078880 
	C133.079987,112.619164 133.444153,113.159454 133.892456,114.131813 
	C133.976562,114.563889 134.224258,114.838036 134.224258,114.838036 
	C134.398361,115.037415 134.572449,115.236786 134.843124,116.141106 
	C135.526749,117.590668 136.113770,118.335281 136.700790,119.079903 
	C137.506012,120.332664 138.311218,121.585434 139.108337,123.503548 
	C139.621475,124.808266 140.142700,125.447639 140.663940,126.087006 
	C141.034119,126.617607 141.404297,127.148216 141.848587,128.323715 
	C142.681351,130.321716 143.440018,131.674835 144.198669,133.027939 
	C144.104767,134.516586 144.010864,136.005234 143.329498,137.726654 
	C142.154144,138.490341 141.566254,139.021286 140.978378,139.552231 
	C138.601913,139.673065 136.225464,139.793900 133.141907,139.638367 
	C130.627899,139.560318 128.820999,139.758621 127.014084,139.956940 
	C125.293526,139.920029 123.572968,139.883118 121.343140,139.421417 
	C119.240227,138.935287 117.646591,138.873962 116.052956,138.812653 
	C114.964966,138.818268 113.876968,138.823883 112.362274,138.432861 
	C111.304291,137.977249 110.673004,137.918289 110.041718,137.859329 
	C109.584846,137.861343 109.127983,137.863342 108.304428,137.500671 
	C107.304634,137.047592 106.671532,136.959198 106.038422,136.870819 
	C104.902534,136.577148 103.766640,136.283478 102.107697,135.647949 
	C101.058739,135.203232 100.532829,135.100372 100.006927,134.997498 
M43.016842,99.378235 
	C43.047768,98.951729 43.078697,98.525230 43.506882,97.546883 
	C41.465878,97.316650 39.424870,97.086418 37.383865,96.856186 
	C37.508358,98.425499 37.632847,99.994804 37.757336,101.564117 
	C39.500027,101.049591 41.242714,100.535072 43.016842,99.378235 
M55.689598,68.456520 
	C54.423618,67.685539 53.157639,66.914558 51.891655,66.143578 
	C51.576736,67.211296 50.661057,68.679169 51.056904,69.273468 
	C52.367157,71.240654 54.087162,71.785400 55.689598,68.456520 
M59.962238,98.634956 
	C56.115677,99.662056 56.936600,101.504387 58.634693,103.499924 
	C59.255444,103.555588 59.876190,103.611252 60.496941,103.666908 
	C60.496941,102.129189 60.496941,100.591461 59.962238,98.634956 
M48.390850,84.095955 
	C47.685299,85.008430 46.979744,85.920906 46.274189,86.833382 
	C47.073555,87.154762 47.872921,87.476143 48.672287,87.797516 
	C48.826752,86.641373 48.981216,85.485229 48.390850,84.095955 
M36.836174,110.397324 
	C37.087711,111.474236 37.339252,112.551140 37.590797,113.628059 
	C38.251770,113.025963 38.912739,112.423874 39.573708,111.821777 
	C38.775917,111.159584 37.978127,110.497383 36.836174,110.397324 
z"/>
<path fill="#E9E8EA" opacity="1.000000" stroke="none" 
	d="
M83.912346,92.808884 
	C82.823875,96.000740 81.735405,99.192589 80.394623,102.667801 
	C79.876160,101.386497 79.610008,99.821846 79.268227,97.812531 
	C77.478073,97.961128 75.765465,98.103294 73.675346,98.478348 
	C72.913559,97.551285 72.529274,96.391335 72.510300,94.769318 
	C76.554520,93.807800 80.233429,93.308342 83.912346,92.808884 
z"/>
<path fill="#E9E8EA" opacity="1.000000" stroke="none" 
	d="
M13.421333,139.932922 
	C16.831461,139.585220 20.578329,139.440659 24.630390,139.555847 
	C21.209745,139.922424 17.483910,140.029221 13.421333,139.932922 
z"/>
<path fill="#E9E8EA" opacity="1.000000" stroke="none" 
	d="
M81.308907,112.349976 
	C82.588120,114.733459 83.795135,117.485558 84.999619,120.622726 
	C83.743622,118.244720 82.490166,115.481651 81.308907,112.349976 
z"/>
<path fill="#E7E6E8" opacity="1.000000" stroke="none" 
	d="
M18.764889,115.284721 
	C17.980375,117.404129 16.893753,119.658180 15.470900,121.977386 
	C16.244040,119.834816 17.353411,117.627090 18.764889,115.284721 
z"/>
<path fill="#E7E6E8" opacity="1.000000" stroke="none" 
	d="
M22.747343,108.283737 
	C21.967731,110.407364 20.884991,112.663353 19.466019,114.987869 
	C20.234596,112.842972 21.339405,110.629539 22.747343,108.283737 
z"/>
<path fill="#E9E8EA" opacity="1.000000" stroke="none" 
	d="
M127.150986,140.309525 
	C128.820999,139.758621 130.627899,139.560318 132.693420,139.612671 
	C131.063965,140.129578 129.175934,140.395859 127.150986,140.309525 
z"/>
<path fill="#E9E8EA" opacity="1.000000" stroke="none" 
	d="
M116.346420,139.034210 
	C117.646591,138.873962 119.240227,138.935287 120.926254,139.315704 
	C119.559052,139.508438 118.099472,139.382095 116.346420,139.034210 
z"/>
<path fill="#E9E8EA" opacity="1.000000" stroke="none" 
	d="
M128.679993,104.769394 
	C127.774857,103.715919 126.854942,102.337830 125.925568,100.621994 
	C126.832466,101.671097 127.748833,103.057938 128.679993,104.769394 
z"/>
<path fill="#E9E8EA" opacity="1.000000" stroke="none" 
	d="
M124.681496,97.756310 
	C123.773026,96.704536 122.854179,95.327698 121.926682,93.612869 
	C122.835724,94.660339 123.753426,96.045792 124.681496,97.756310 
z"/>
<path fill="#E9E8EA" opacity="1.000000" stroke="none" 
	d="
M120.686272,90.767044 
	C119.779419,89.703407 118.859413,88.309219 117.933403,86.573593 
	C118.842636,87.633606 119.757881,89.035042 120.686272,90.767044 
z"/>
<path fill="#E9E8EA" opacity="1.000000" stroke="none" 
	d="
M144.316483,132.729584 
	C143.440018,131.674835 142.681351,130.321716 141.912781,128.654877 
	C142.746658,129.704514 143.590469,131.067871 144.316483,132.729584 
z"/>
<path fill="#E7E6E8" opacity="1.000000" stroke="none" 
	d="
M26.064430,102.291748 
	C25.815643,103.377930 25.305515,104.666641 24.493450,106.014679 
	C24.728706,104.880768 25.265898,103.687531 26.064430,102.291748 
z"/>
<path fill="#E9E8EA" opacity="1.000000" stroke="none" 
	d="
M80.242470,106.335907 
	C80.730980,107.166695 81.150314,108.348969 81.329391,109.749802 
	C80.783844,108.874702 80.478577,107.781044 80.242470,106.335907 
z"/>
<path fill="#E9E8EA" opacity="1.000000" stroke="none" 
	d="
M136.691422,118.783653 
	C136.113770,118.335281 135.526749,117.590668 134.937073,116.526848 
	C135.516968,116.967560 136.099518,117.727486 136.691422,118.783653 
z"/>
<path fill="#E7E6E8" opacity="1.000000" stroke="none" 
	d="
M29.700489,96.089409 
	C29.598717,96.920959 29.225594,97.911453 28.519060,98.979385 
	C28.600145,98.120674 29.014643,97.184517 29.700489,96.089409 
z"/>
<path fill="#E9E8EA" opacity="1.000000" stroke="none" 
	d="
M141.245407,139.585358 
	C141.566254,139.021286 142.154144,138.490341 143.009323,137.957794 
	C142.688553,138.510284 142.100494,139.064377 141.245407,139.585358 
z"/>
<path fill="#E9E8EA" opacity="1.000000" stroke="none" 
	d="
M132.710312,111.774323 
	C132.124634,111.330307 131.533463,110.581726 130.940765,109.511566 
	C131.527756,109.949898 132.116287,110.709831 132.710312,111.774323 
z"/>
<path fill="#E9E8EA" opacity="1.000000" stroke="none" 
	d="
M73.411194,104.918060 
	C73.034401,104.036591 72.990929,103.046211 73.094055,101.729965 
	C73.408600,102.539124 73.576553,103.674141 73.411194,104.918060 
z"/>
<path fill="#E7E6E8" opacity="1.000000" stroke="none" 
	d="
M46.714378,66.120842 
	C46.613297,66.952301 46.238327,67.934189 45.534256,68.996582 
	C45.616928,68.141815 46.028709,67.206543 46.714378,66.120842 
z"/>
<path fill="#E7E6E8" opacity="1.000000" stroke="none" 
	d="
M42.713249,73.118515 
	C42.625782,73.955124 42.260590,74.932747 41.569389,75.990219 
	C41.640762,75.133217 42.038139,74.196373 42.713249,73.118515 
z"/>
<path fill="#E7E6E8" opacity="1.000000" stroke="none" 
	d="
M38.717255,80.128647 
	C38.631725,80.964668 38.269039,81.942841 37.582539,83.006477 
	C37.652512,82.151558 38.046303,81.211182 38.717255,80.128647 
z"/>
<path fill="#E9E8EA" opacity="1.000000" stroke="none" 
	d="
M140.653748,125.770462 
	C140.142700,125.447639 139.621475,124.808266 139.139343,123.828247 
	C139.666824,124.143036 140.155182,124.798477 140.653748,125.770462 
z"/>
<path fill="#E7E6E8" opacity="1.000000" stroke="none" 
	d="
M34.071747,88.262566 
	C34.136311,88.727180 33.961666,89.369385 33.525242,90.052444 
	C33.453156,89.542252 33.642841,88.991203 34.071747,88.262566 
z"/>
<path fill="#E9E8EA" opacity="1.000000" stroke="none" 
	d="
M110.196548,138.105530 
	C110.673004,137.918289 111.304291,137.977249 111.979546,138.289200 
	C111.466133,138.478699 110.908760,138.415207 110.196548,138.105530 
z"/>
<path fill="#E9E8EA" opacity="1.000000" stroke="none" 
	d="
M106.197006,137.120865 
	C106.671532,136.959198 107.304634,137.047592 107.977661,137.396484 
	C107.463585,137.561615 106.909592,137.466263 106.197006,137.120865 
z"/>
<path fill="#E9E8EA" opacity="1.000000" stroke="none" 
	d="
M45.293144,137.721054 
	C45.453297,137.413208 45.877457,137.175644 46.554703,136.937103 
	C46.390911,137.221191 45.974030,137.506271 45.293144,137.721054 
z"/>
<path fill="#E9E8EA" opacity="1.000000" stroke="none" 
	d="
M72.181885,110.738823 
	C71.995461,110.418823 72.036140,109.970528 72.207741,109.338707 
	C72.362099,109.640297 72.385544,110.125412 72.181885,110.738823 
z"/>
<path fill="#E9E8EA" opacity="1.000000" stroke="none" 
	d="
M70.178719,117.697205 
	C70.024849,117.335335 70.111626,116.864418 70.376717,116.229576 
	C70.509804,116.573151 70.464592,117.080666 70.178719,117.697205 
z"/>
<path fill="#E9E8EA" opacity="1.000000" stroke="none" 
	d="
M100.086884,135.303619 
	C100.532829,135.100372 101.058739,135.203232 101.773804,135.501190 
	C101.364258,135.667435 100.765556,135.638596 100.086884,135.303619 
z"/>
<path fill="#E7E6E8" opacity="1.000000" stroke="none" 
	d="
M12.782261,126.103615 
	C13.002872,126.334534 12.889895,126.581734 12.490870,126.881577 
	C12.110969,126.626633 12.192254,126.355186 12.782261,126.103615 
z"/>
<path fill="#E7E6E8" opacity="1.000000" stroke="none" 
	d="
M13.813511,124.155434 
	C14.028412,124.374329 13.928843,124.607834 13.556693,124.886185 
	C13.191015,124.645088 13.262659,124.391426 13.813511,124.155434 
z"/>
<path fill="#E9E8EA" opacity="1.000000" stroke="none" 
	d="
M87.228790,125.189789 
	C87.509872,125.042198 87.733879,125.219833 87.957123,125.692352 
	C87.674248,125.891785 87.412689,125.734383 87.228790,125.189789 
z"/>
<path fill="#E9E8EA" opacity="1.000000" stroke="none" 
	d="
M49.922558,60.516060 
	C50.046837,60.547379 50.028091,60.643944 50.007172,60.658432 
	C49.986248,60.672924 49.742813,60.729935 49.742813,60.729935 
	C49.742813,60.729935 49.798279,60.484745 49.922558,60.516060 
z"/>
<path fill="#E7E6E8" opacity="1.000000" stroke="none" 
	d="
M11.771824,128.081818 
	C11.993838,128.307983 11.880412,128.561035 11.478887,128.874527 
	C11.095586,128.622787 11.177451,128.347366 11.771824,128.081818 
z"/>
<path fill="#E7E6E8" opacity="1.000000" stroke="none" 
	d="
M56.236557,133.636444 
	C56.094906,133.337433 56.251583,133.153534 56.677216,133.003494 
	C56.867661,133.285156 56.730568,133.523224 56.236557,133.636444 
z"/>
<path fill="#E9E8EA" opacity="1.000000" stroke="none" 
	d="
M68.782700,28.096722 
	C68.987236,28.311689 68.873009,28.559193 68.481110,28.868156 
	C68.133026,28.625095 68.219856,28.358309 68.782700,28.096722 
z"/>
<path fill="#E9E8EA" opacity="1.000000" stroke="none" 
	d="
M69.689377,25.966370 
	C69.913406,26.219633 69.771957,26.490013 69.351448,26.850761 
	C69.249130,26.670527 69.332962,26.351311 69.689377,25.966370 
z"/>
<path fill="#E9E8EA" opacity="1.000000" stroke="none" 
	d="
M75.748535,19.344971 
	C75.856323,19.684359 75.667473,19.859045 75.204018,19.975595 
	C75.063126,19.672287 75.237289,19.426556 75.748535,19.344971 
z"/>
<path fill="#E9E8EA" opacity="1.000000" stroke="none" 
	d="
M68.134201,121.701141 
	C67.984993,121.723862 68.136124,121.279419 68.239059,121.222458 
	C68.342003,121.165504 68.465019,121.439354 68.465019,121.439354 
	C68.465019,121.439354 68.283401,121.678429 68.134201,121.701141 
z"/>
<path fill="#E9E8EA" opacity="1.000000" stroke="none" 
	d="
M69.169174,119.826096 
	C68.971619,119.647484 69.048935,119.433533 69.352005,119.156265 
	C69.721153,119.347969 69.676590,119.580574 69.169174,119.826096 
z"/>
<path fill="#E7E6E8" opacity="1.000000" stroke="none" 
	d="
M55.834190,50.201210 
	C56.028103,50.414951 55.927406,50.632309 55.574783,50.889412 
	C55.240654,50.655876 55.312897,50.414436 55.834190,50.201210 
z"/>
<path fill="#E9E8EA" opacity="1.000000" stroke="none" 
	d="
M31.881992,92.340515 
	C32.028648,92.493469 31.950518,92.664040 31.724541,92.912537 
	C31.420574,92.772003 31.447409,92.561218 31.881992,92.340515 
z"/>
<path fill="#E9E8EA" opacity="1.000000" stroke="none" 
	d="
M134.329575,114.726379 
	C134.224258,114.838036 133.976562,114.563889 133.959412,114.471519 
	C134.188858,114.285866 134.353073,114.364388 134.329575,114.726379 
z"/>
<path fill="#E9E8EA" opacity="1.000000" stroke="none" 
	d="
M44.906239,69.317497 
	C45.076382,69.302605 44.893177,69.733871 44.800934,69.807396 
	C44.708687,69.880920 44.522503,69.596809 44.522503,69.596809 
	C44.522503,69.596809 44.736095,69.332390 44.906239,69.317497 
z"/>
<path fill="#E9E8EA" opacity="1.000000" stroke="none" 
	d="
M23.915176,106.313332 
	C24.077040,106.293091 23.919209,106.713989 23.833164,106.787903 
	C23.747122,106.861816 23.561773,106.595642 23.561773,106.595642 
	C23.561773,106.595642 23.753311,106.333572 23.915176,106.313332 
z"/>
<path fill="#E9E8EA" opacity="1.000000" stroke="none" 
	d="
M129.117889,105.663910 
	C128.997787,105.620216 128.932343,105.552444 128.938202,105.528694 
	C128.944046,105.504944 129.198486,105.453293 129.198486,105.453293 
	C129.198486,105.453293 129.238007,105.707603 129.117889,105.663910 
z"/>
<path fill="#E9E8EA" opacity="1.000000" stroke="none" 
	d="
M36.920246,83.373749 
	C37.079197,83.380806 36.933220,83.735107 36.856113,83.793999 
	C36.779007,83.852890 36.567429,83.617348 36.567429,83.617348 
	C36.567429,83.617348 36.761295,83.366699 36.920246,83.373749 
z"/>
<path fill="#E9E8EA" opacity="1.000000" stroke="none" 
	d="
M117.277924,84.706100 
	C117.139862,84.740387 116.978966,84.604538 116.993469,84.550972 
	C117.007973,84.497406 117.283104,84.419426 117.283104,84.419426 
	C117.283104,84.419426 117.415993,84.671822 117.277924,84.706100 
z"/>
<path fill="#E9E8EA" opacity="1.000000" stroke="none" 
	d="
M26.870617,100.777321 
	C26.816998,100.853539 26.857628,100.712318 26.891804,100.703293 
	C26.925982,100.694267 26.924236,100.701103 26.870617,100.777321 
z"/>
<path fill="#E9E8EA" opacity="1.000000" stroke="none" 
	d="
M35.868362,85.307198 
	C36.020275,85.478432 35.928341,85.665733 35.658562,85.925735 
	C35.364082,85.753944 35.412018,85.528885 35.868362,85.307198 
z"/>
<path fill="#E9E8EA" opacity="1.000000" stroke="none" 
	d="
M32.911419,90.364441 
	C33.078217,90.370674 32.906235,90.747231 32.822929,90.810204 
	C32.739624,90.873177 32.532036,90.613792 32.532036,90.613792 
	C32.532036,90.613792 32.744621,90.358200 32.911419,90.364441 
z"/>
<path fill="#E9E8EA" opacity="1.000000" stroke="none" 
	d="
M121.208450,91.690659 
	C121.068642,91.716362 120.927887,91.564964 120.928314,91.511841 
	C120.928749,91.458717 121.212936,91.411995 121.212936,91.411995 
	C121.212936,91.411995 121.348251,91.664948 121.208450,91.690659 
z"/>
<path fill="#030304" opacity="1.000000" stroke="none" 
	d="
M83.983391,92.455826 
	C80.233429,93.308342 76.554520,93.807800 72.433060,94.414238 
	C71.065804,93.838829 70.141090,93.156448 68.926865,91.976051 
	C68.090340,91.006683 67.543343,90.535316 66.996346,90.063950 
	C66.913338,89.875816 66.830330,89.687691 66.135437,89.362015 
	C64.373230,89.564156 63.222919,89.903854 62.072609,90.243546 
	C60.983406,90.247612 59.894203,90.251671 58.010017,90.196304 
	C56.890312,89.082031 56.565578,88.027184 56.240852,86.972343 
	C56.476124,85.914619 56.711395,84.856895 57.177319,83.148178 
	C57.696804,80.989288 57.985638,79.481400 58.274467,77.973503 
	C58.847115,75.583603 59.419758,73.193695 60.244652,70.078865 
	C60.400749,66.892929 60.304596,64.431923 60.208443,61.970913 
	C60.452351,60.908409 60.696266,59.845901 61.153519,58.127613 
	C62.501385,54.620327 63.635914,51.768822 64.770439,48.917316 
	C64.770439,48.917316 64.939941,48.902199 65.196693,48.710007 
	C65.894791,47.657131 66.336136,46.796444 66.777481,45.935760 
	C67.093208,45.696289 67.408936,45.456814 68.105415,44.822823 
	C69.339088,43.294193 70.192001,42.160084 71.044922,41.025970 
	C71.044922,41.025970 70.996857,41.004124 71.319473,40.968658 
	C72.067474,40.287201 72.492859,39.641205 72.918251,38.995213 
	C75.546906,36.413204 78.007385,36.302170 80.262032,39.479107 
	C83.799950,44.464272 87.345825,49.443787 91.116890,55.071556 
	C91.906204,57.808823 92.466957,59.900230 93.027710,61.991634 
	C93.065826,66.081467 93.103928,70.171295 93.317726,74.839935 
	C93.599258,75.658798 93.783363,75.774376 94.045731,75.765495 
	C94.401764,76.948654 94.757805,78.131821 95.243958,79.918320 
	C95.600067,81.009338 95.826057,81.497032 96.052048,81.984726 
	C96.042412,82.445961 96.032776,82.907196 96.139648,83.991066 
	C96.498161,85.411476 96.740158,86.209251 96.982162,87.007027 
	C97.533234,90.634735 95.127922,90.380142 92.204269,89.960350 
	C90.376465,89.679657 89.127327,89.643372 87.878189,89.607086 
	C86.603607,90.438980 85.329018,91.270874 83.983391,92.455826 
z"/>
<path fill="#E9E8EA" opacity="1.000000" stroke="none" 
	d="
M42.985405,100.020546 
	C41.242714,100.535072 39.500027,101.049591 37.757336,101.564117 
	C37.632847,99.994804 37.508358,98.425499 37.383865,96.856186 
	C39.424870,97.086418 41.465878,97.316650 43.001507,97.823723 
	C42.150677,98.487297 41.805218,98.874039 41.459763,99.260780 
	C41.968307,99.514038 42.476856,99.767296 42.985405,100.020546 
z"/>
<path fill="#E9E8EA" opacity="1.000000" stroke="none" 
	d="
M55.561657,68.773491 
	C54.087162,71.785400 52.367157,71.240654 51.056904,69.273468 
	C50.661057,68.679169 51.576736,67.211296 51.891655,66.143578 
	C53.157639,66.914558 54.423618,67.685539 55.561657,68.773491 
z"/>
<path fill="#E9E8EA" opacity="1.000000" stroke="none" 
	d="
M60.229591,98.844345 
	C60.496941,100.591461 60.496941,102.129189 60.496941,103.666908 
	C59.876190,103.611252 59.255444,103.555588 58.634693,103.499924 
	C56.936600,101.504387 56.115677,99.662056 60.229591,98.844345 
z"/>
<path fill="#E9E8EA" opacity="1.000000" stroke="none" 
	d="
M64.441620,49.003319 
	C63.635914,51.768822 62.501385,54.620327 61.119488,57.717339 
	C61.952347,55.005009 63.032574,52.047165 64.441620,49.003319 
z"/>
<path fill="#E9E8EA" opacity="1.000000" stroke="none" 
	d="
M48.763264,84.212524 
	C48.981216,85.485229 48.826752,86.641373 48.672287,87.797516 
	C47.872921,87.476143 47.073555,87.154762 46.274189,86.833382 
	C46.979744,85.920906 47.685299,85.008430 48.763264,84.212524 
z"/>
<path fill="#E9E8EA" opacity="1.000000" stroke="none" 
	d="
M59.918182,62.149044 
	C60.304596,64.431923 60.400749,66.892929 60.238590,69.654793 
	C59.862827,67.412827 59.745377,64.870003 59.918182,62.149044 
z"/>
<path fill="#E9E8EA" opacity="1.000000" stroke="none" 
	d="
M37.008255,110.116257 
	C37.978127,110.497383 38.775917,111.159584 39.573708,111.821777 
	C38.912739,112.423874 38.251770,113.025963 37.590797,113.628052 
	C37.339252,112.551140 37.087711,111.474236 37.008255,110.116257 
z"/>
<path fill="#E9E8EA" opacity="1.000000" stroke="none" 
	d="
M93.288849,61.754093 
	C92.466957,59.900230 91.906204,57.808823 91.345001,55.349190 
	C92.079712,57.159492 92.814850,59.338020 93.288849,61.754093 
z"/>
<path fill="#E9E8EA" opacity="1.000000" stroke="none" 
	d="
M55.956837,87.131790 
	C56.565578,88.027184 56.890312,89.082031 57.617214,90.309830 
	C57.298012,90.876396 56.576637,91.270004 55.855263,91.663605 
	C55.794453,90.206154 55.733639,88.748695 55.956837,87.131790 
z"/>
<path fill="#E9E8EA" opacity="1.000000" stroke="none" 
	d="
M58.001968,78.093811 
	C57.985638,79.481400 57.696804,80.989288 57.167198,82.738274 
	C57.194103,81.390945 57.461784,79.802536 58.001968,78.093811 
z"/>
<path fill="#E9E8EA" opacity="1.000000" stroke="none" 
	d="
M62.341599,90.476990 
	C63.222919,89.903854 64.373230,89.564156 65.830933,89.312881 
	C64.962410,89.837685 63.786499,90.274063 62.341599,90.476990 
z"/>
<path fill="#E9E8EA" opacity="1.000000" stroke="none" 
	d="
M88.039352,89.914413 
	C89.127327,89.643372 90.376465,89.679657 91.773613,89.999420 
	C90.681252,90.262497 89.440887,90.242111 88.039352,89.914413 
z"/>
<path fill="#E9E8EA" opacity="1.000000" stroke="none" 
	d="
M70.703049,41.042358 
	C70.192001,42.160084 69.339088,43.294193 68.194054,44.532394 
	C68.721687,43.443905 69.541435,42.251328 70.703049,41.042358 
z"/>
<path fill="#E9E8EA" opacity="1.000000" stroke="none" 
	d="
M97.227272,86.826775 
	C96.740158,86.209251 96.498161,85.411476 96.308792,84.296982 
	C96.731743,84.869011 97.102066,85.757767 97.227272,86.826775 
z"/>
<path fill="#E9E8EA" opacity="1.000000" stroke="none" 
	d="
M66.468521,46.001968 
	C66.336136,46.796444 65.894791,47.657131 65.176933,48.627251 
	C65.320129,47.847179 65.739845,46.957676 66.468521,46.001968 
z"/>
<path fill="#E9E8EA" opacity="1.000000" stroke="none" 
	d="
M67.020226,90.353546 
	C67.543343,90.535316 68.090340,91.006683 68.633743,91.785782 
	C68.101471,91.610062 67.572784,91.126602 67.020226,90.353546 
z"/>
<path fill="#E7E6E8" opacity="1.000000" stroke="none" 
	d="
M43.001122,99.699387 
	C42.476856,99.767296 41.968307,99.514038 41.459763,99.260780 
	C41.805218,98.874039 42.150677,98.487297 42.802879,98.099640 
	C43.078697,98.525230 43.047768,98.951729 43.001122,99.699387 
z"/>
<path fill="#E9E8EA" opacity="1.000000" stroke="none" 
	d="
M72.598923,39.031559 
	C72.492859,39.641205 72.067474,40.287201 71.334854,40.990185 
	C71.444954,40.387421 71.862274,39.727665 72.598923,39.031559 
z"/>
<path fill="#E9E8EA" opacity="1.000000" stroke="none" 
	d="
M96.261917,81.838463 
	C95.826057,81.497032 95.600067,81.009338 95.416107,80.248993 
	C95.796021,80.548286 96.133911,81.120247 96.261917,81.838463 
z"/>
<path fill="#E9E8EA" opacity="1.000000" stroke="none" 
	d="
M94.015625,75.628609 
	C93.783363,75.774376 93.599258,75.658798 93.550430,75.257370 
	C93.786964,75.176773 93.912987,75.308685 94.015625,75.628609 
z"/>
</svg>