<?xml version="1.0" standalone="no"?>
<!DOCTYPE svg PUBLIC "-//W3C//DTD SVG 20010904//EN"
 "http://www.w3.org/TR/2001/REC-SVG-20010904/DTD/svg10.dtd">
<svg version="1.0" xmlns="http://www.w3.org/2000/svg"
 width="512.000000pt" height="512.000000pt" viewBox="0 0 512.000000 512.000000"
 preserveAspectRatio="xMidYMid meet">

<g transform="translate(0.000000,512.000000) scale(0.100000,-0.100000)"
fill="#000000" stroke="none">
<path d="M1774 5101 c-20 -12 -56 -61 -99 -133 -38 -62 -69 -114 -70 -115 0
-1 -56 -14 -123 -29 -140 -31 -177 -50 -198 -101 -26 -61 -12 -93 87 -208 l90
-105 -12 -134 c-13 -153 -8 -181 43 -218 48 -33 91 -28 224 29 l121 52 119
-51 c163 -70 221 -66 261 18 15 30 15 49 5 170 l-12 136 81 92 c99 112 113
137 106 189 -10 70 -42 91 -197 129 l-134 33 -63 104 c-34 58 -73 116 -86 129
-34 34 -101 40 -143 13z m126 -263 c30 -50 66 -99 80 -109 14 -10 70 -28 125
-40 55 -12 104 -25 109 -29 4 -5 -26 -48 -68 -96 -42 -48 -79 -98 -82 -111 -4
-13 -2 -74 4 -136 6 -61 9 -113 8 -114 -2 -2 -45 15 -96 38 -134 60 -146 60
-275 5 -59 -26 -109 -45 -110 -44 -1 2 3 53 8 114 5 62 7 124 3 138 -3 14 -40
65 -81 113 -41 48 -72 90 -68 93 5 4 53 17 108 29 55 12 111 30 125 40 14 9
52 61 84 114 33 54 62 95 65 91 3 -3 31 -46 61 -96z"/>
<path d="M454 4940 c-26 -10 -57 -50 -109 -142 -22 -38 -46 -70 -55 -72 -8 -3
-51 -12 -95 -22 -130 -27 -165 -55 -165 -129 0 -44 11 -63 104 -169 l48 -56
-10 -107 c-12 -120 -3 -158 42 -189 41 -26 92 -20 195 25 l93 40 72 -30 c122
-53 153 -61 190 -45 18 7 43 26 55 42 22 27 23 35 16 129 -3 55 -8 107 -11
116 -3 11 23 48 70 102 97 112 107 157 48 219 -19 21 -46 32 -121 49 -53 12
-103 25 -111 30 -9 4 -40 47 -68 96 -68 114 -115 143 -188 113z m95 -250 c23
-38 51 -76 63 -85 13 -8 57 -22 100 -32 43 -9 78 -19 78 -23 0 -4 -23 -33 -51
-65 -28 -32 -55 -69 -60 -82 -5 -13 -6 -62 -3 -109 4 -46 5 -84 2 -84 -3 0
-38 14 -76 30 -39 17 -84 30 -101 30 -16 0 -59 -13 -96 -30 -37 -16 -71 -30
-76 -30 -6 0 -7 32 -3 79 4 43 4 90 0 104 -3 15 -31 56 -62 92 -31 36 -55 67
-53 69 2 2 33 9 69 16 104 20 121 32 171 115 24 41 47 75 50 75 4 0 25 -31 48
-70z"/>
<path d="M3044 4931 c-20 -12 -50 -52 -83 -110 -36 -61 -60 -93 -74 -96 -144
-33 -188 -45 -206 -54 -28 -15 -51 -62 -51 -105 0 -35 8 -46 127 -185 22 -25
22 -32 16 -151 l-6 -126 32 -32 c49 -49 85 -47 213 8 l90 39 72 -30 c122 -53
153 -61 190 -45 18 7 43 26 55 42 22 28 23 34 16 150 l-7 121 65 74 c35 41 69
84 76 96 25 49 3 116 -48 145 -14 9 -62 23 -106 32 -44 10 -88 20 -97 22 -10
3 -43 48 -73 99 -73 124 -126 152 -201 106z m107 -241 c23 -39 51 -77 63 -85
11 -8 55 -22 98 -32 43 -9 78 -21 78 -26 0 -5 -21 -32 -46 -61 -66 -73 -74
-96 -65 -192 5 -43 7 -81 5 -83 -2 -2 -37 11 -78 28 -41 17 -87 31 -103 31
-15 0 -59 -14 -98 -30 -38 -17 -72 -30 -76 -30 -3 0 -4 43 -1 95 5 106 5 106
-72 192 -26 28 -43 54 -39 56 5 3 35 10 68 17 95 19 121 35 162 104 38 64 53
86 59 86 2 0 22 -32 45 -70z"/>
<path d="M1640 3825 c-96 -21 -191 -61 -274 -115 -102 -66 -120 -107 -71 -155
32 -33 60 -31 115 6 127 86 259 129 395 129 296 0 555 -202 630 -490 20 -77
22 -212 6 -295 -18 -85 -91 -230 -151 -297 -69 -77 -182 -151 -283 -185 -70
-23 -99 -27 -202 -27 -100 -1 -132 3 -190 22 -249 83 -416 280 -455 535 -15
100 -6 189 31 300 35 106 36 127 6 155 -48 45 -94 25 -130 -56 -42 -92 -60
-185 -61 -307 -1 -262 116 -492 334 -656 l35 -26 -60 -17 c-502 -138 -865
-492 -1011 -981 -35 -118 -36 -216 -4 -300 32 -82 122 -172 205 -206 l60 -24
678 -3 677 -3 0 -328 c0 -323 0 -329 23 -371 16 -30 37 -51 68 -67 44 -24 46
-24 330 -21 l286 3 36 28 c40 31 67 74 67 108 l0 21 218 -5 c246 -5 304 -16
496 -91 245 -96 335 -106 939 -106 525 0 531 1 612 72 63 56 95 124 95 204 0
72 -13 113 -52 172 l-30 43 27 35 c40 53 58 115 53 192 -3 65 -17 98 -70 174
-10 14 -8 21 9 40 83 88 84 244 3 358 l-21 29 29 40 c40 54 56 118 50 194 -8
100 -60 177 -152 225 l-51 27 -436 5 c-464 5 -453 4 -482 54 -8 15 -14 123
-17 356 l-5 335 -27 57 c-32 68 -96 140 -156 175 -86 51 -208 28 -265 -49 -30
-40 -33 -50 -203 -633 -75 -259 -147 -491 -160 -516 -12 -25 -41 -62 -64 -83
-66 -60 -120 -79 -236 -84 l-101 -5 -5 55 c-5 65 -32 108 -82 132 -29 14 -77
16 -324 16 -283 0 -290 0 -322 -22 -18 -13 -43 -36 -54 -51 -20 -27 -21 -43
-24 -298 l-3 -270 -667 3 c-661 3 -667 3 -707 25 -105 56 -138 144 -105 281
119 498 552 877 1076 943 140 17 451 6 576 -20 277 -60 503 -181 714 -382 123
-119 145 -129 189 -84 14 13 25 35 25 49 0 53 -179 227 -350 339 -101 66 -255
139 -373 177 l-98 32 69 48 c232 163 360 447 331 733 -35 346 -292 631 -631
701 -93 19 -239 19 -328 1z m2056 -1174 c36 -22 75 -72 92 -116 7 -19 12 -145
14 -355 4 -358 4 -361 68 -434 18 -20 52 -47 74 -59 40 -21 52 -22 476 -27
333 -4 440 -8 458 -18 55 -32 78 -121 47 -182 -28 -54 -63 -64 -237 -68 -155
-4 -158 -4 -178 -29 -33 -42 -25 -85 21 -108 21 -11 66 -15 180 -15 l151 0 39
-39 c34 -33 39 -45 39 -82 0 -56 -16 -87 -59 -116 -32 -21 -44 -23 -188 -23
-150 0 -155 -1 -178 -25 -32 -31 -32 -69 0 -100 23 -24 28 -25 170 -25 166 0
203 -10 235 -62 39 -64 20 -146 -44 -184 -26 -16 -57 -19 -186 -22 -140 -4
-157 -6 -177 -25 -25 -23 -29 -63 -9 -89 23 -30 64 -38 208 -38 112 0 146 -3
168 -16 84 -50 78 -184 -11 -229 -28 -15 -85 -16 -548 -12 -589 4 -587 4 -831
95 -233 87 -320 102 -579 102 l-181 0 0 459 0 458 113 5 c167 8 258 48 360
157 27 28 59 75 72 104 13 29 89 277 170 552 179 615 163 565 189 575 29 12
27 12 62 -9z m-1116 -1821 l0 -640 -252 2 -253 3 -3 638 -2 637 255 0 255 0 0
-640z"/>
</g>
</svg>
