<?xml version="1.0" standalone="no"?>
<!DOCTYPE svg PUBLIC "-//W3C//DTD SVG 20010904//EN"
 "http://www.w3.org/TR/2001/REC-SVG-20010904/DTD/svg10.dtd">
<svg version="1.0" xmlns="http://www.w3.org/2000/svg"
 width="512.000000pt" height="512.000000pt" viewBox="0 0 512.000000 512.000000"
 preserveAspectRatio="xMidYMid meet">

<g transform="translate(0.000000,512.000000) scale(0.100000,-0.100000)"
fill="#000000" stroke="none">
<path d="M2145 5114 c-597 -60 -1085 -289 -1482 -695 -122 -125 -190 -210
-285 -354 -181 -274 -301 -594 -355 -936 -24 -158 -24 -500 0 -658 141 -904
756 -1621 1622 -1890 377 -117 828 -131 1222 -36 118 28 283 86 310 109 36 32
36 81 -1 113 -15 12 -34 23 -42 23 -8 0 -68 -18 -133 -39 -385 -128 -814 -144
-1199 -47 -242 62 -472 163 -670 296 -172 116 -155 90 -142 214 58 575 459
1033 1030 1177 119 30 388 38 517 15 330 -57 633 -237 835 -496 67 -85 84
-100 120 -100 36 0 78 40 78 73 0 64 -183 273 -349 398 -110 83 -315 192 -423
225 -32 10 -58 21 -58 24 0 4 10 11 23 17 51 24 173 130 228 200 65 82 138
224 164 318 10 35 19 117 22 195 4 115 2 148 -16 223 -62 258 -228 467 -464
582 -126 61 -233 85 -377 85 -337 0 -627 -181 -775 -484 -51 -104 -72 -176
-84 -293 -22 -214 42 -435 176 -611 59 -77 157 -166 224 -205 21 -12 39 -24
39 -27 0 -3 -30 -16 -67 -28 -172 -60 -351 -163 -493 -284 -265 -227 -456
-579 -505 -933 l-7 -50 -60 65 c-33 36 -94 108 -136 160 -521 644 -618 1553
-246 2299 119 239 240 405 426 587 237 231 509 400 813 502 482 162 1013 150
1485 -35 758 -297 1281 -995 1361 -1818 14 -145 6 -378 -18 -525 -23 -141 -21
-159 12 -188 33 -28 79 -25 106 8 32 38 69 314 69 509 0 1057 -724 1988 -1746
2247 -71 18 -177 40 -235 49 -100 15 -430 28 -514 19z m349 -1144 c193 -49
361 -183 448 -357 63 -126 82 -214 76 -361 -4 -98 -10 -130 -35 -198 -157
-419 -639 -593 -1024 -368 -132 78 -243 212 -302 366 -30 80 -31 89 -32 233 0
138 2 156 27 226 81 228 264 399 490 459 100 26 250 26 352 0z"/>
<path d="M4069 2137 c-186 -63 -322 -208 -369 -393 -17 -64 -20 -110 -20 -271
l0 -193 -45 0 c-107 0 -216 -76 -255 -178 -18 -48 -20 -78 -20 -347 0 -174 4
-316 11 -347 40 -193 204 -357 397 -397 34 -7 207 -11 475 -11 466 0 500 4
610 62 121 65 228 209 256 346 7 31 11 173 11 346 0 335 -3 354 -76 435 -51
57 -126 91 -199 91 l-45 0 0 193 c0 161 -3 207 -20 271 -48 190 -197 343 -389
400 -83 25 -239 21 -322 -7z m341 -171 c106 -55 177 -137 210 -243 17 -56 20
-93 20 -254 l0 -189 -400 0 -400 0 0 189 c0 162 3 198 20 255 31 100 101 183
195 233 76 39 92 43 200 40 87 -3 107 -7 155 -31z m490 -861 c59 -31 61 -45
58 -378 l-3 -302 -33 -67 c-38 -77 -92 -130 -171 -167 l-56 -26 -455 0 -455 0
-56 26 c-79 37 -133 90 -171 167 l-33 67 -3 299 c-3 328 -1 345 52 377 29 18
62 19 664 19 546 0 637 -2 662 -15z"/>
<path d="M4169 984 c-106 -32 -174 -151 -150 -260 15 -64 55 -122 104 -149
l37 -20 0 -93 c0 -85 2 -95 25 -117 15 -16 36 -25 55 -25 19 0 40 9 55 25 23
22 25 32 25 117 l0 93 37 20 c49 27 89 85 104 149 25 111 -44 228 -154 261
-61 18 -78 18 -138 -1z m124 -176 c9 -11 17 -29 17 -40 0 -25 -44 -68 -70 -68
-25 0 -70 42 -70 65 0 66 79 93 123 43z"/>
</g>
</svg>
